<svg width="32" height="32" viewBox="0 0 32 32" fill="none" xmlns="http://www.w3.org/2000/svg">
<path d="M5.33301 25.3333V8.26667C5.33301 6.7732 5.33301 6.02645 5.62366 5.45603C5.87931 4.95425 6.28726 4.54631 6.78903 4.29065C7.35946 4 8.10621 4 9.59967 4H22.3997C23.8931 4 24.6399 4 25.2103 4.29065C25.7121 4.54631 26.1201 4.95425 26.3757 5.45603C26.6663 6.02645 26.6663 6.7732 26.6663 8.26667V22.6667H7.99967C6.52691 22.6667 5.33301 23.8605 5.33301 25.3333ZM5.33301 25.3333C5.33301 26.8061 6.52691 28 7.99967 28H26.6663M11.9997 9.33333H19.9997M11.9997 14.6667H19.9997M25.333 22.6667V28" stroke="white" stroke-width="2" stroke-linecap="round" stroke-linejoin="round"/>
</svg>
