<svg width="45" height="45" viewBox="0 0 45 45" fill="none" xmlns="http://www.w3.org/2000/svg">
<rect x="-1.25" y="1.25" width="41.5" height="41.5" rx="7.25" transform="matrix(1 0 0 -1 3 44.5)" fill="#A1A1A1" stroke="white" stroke-width="2.5"/>
<path d="M11 20.0417C11 17.6061 11 16.3883 11.7811 15.6317C12.5621 14.875 13.8192 14.875 16.3333 14.875H29.6667C32.1808 14.875 33.4379 14.875 34.2189 15.6317C35 16.3883 35 17.6061 35 20.0417V21.3334H11V20.0417Z" stroke="white" stroke-width="2"/>
<path d="M32.3333 14.875H13.6667C12.1939 14.875 11 16.0316 11 17.4584V31.6669C11 33.0936 12.1939 34.2502 13.6667 34.2502H32.3333C33.8061 34.2502 35 33.0936 35 31.6669V17.4584C35 16.0316 33.8061 14.875 32.3333 14.875Z" stroke="white" stroke-width="2"/>
<path d="M16.3333 11V17.4584" stroke="white" stroke-width="2" stroke-linecap="round"/>
<path d="M29.6667 11V17.4584" stroke="white" stroke-width="2" stroke-linecap="round"/>
</svg>
