<svg width="71" height="61" viewBox="0 0 71 61" fill="none" xmlns="http://www.w3.org/2000/svg">
<path d="M0 0H71V61H0V0Z" fill="#DAD9D9"/>
<path d="M14.875 26.5604C14.875 22.5599 14.875 20.5597 16.1895 19.317C17.5039 18.0742 19.6195 18.0742 23.8507 18.0742H46.2899C50.5211 18.0742 52.6366 18.0742 53.9511 19.317C55.2656 20.5597 55.2656 22.5599 55.2656 26.5604V28.6819H14.875V26.5604Z" stroke="#2A4157" stroke-opacity="0.24" stroke-width="1.56"/>
<path d="M50.7778 18.0742H19.3628C16.8843 18.0742 14.875 19.9739 14.875 22.3173V45.6542C14.875 47.9976 16.8843 49.8972 19.3628 49.8972H50.7778C53.2563 49.8972 55.2656 47.9976 55.2656 45.6542V22.3173C55.2656 19.9739 53.2563 18.0742 50.7778 18.0742Z" stroke="#222222" stroke-width="1.56"/>
<path d="M23.8507 11.7095V22.3171" stroke="#222222" stroke-width="1.56" stroke-linecap="round"/>
<path d="M46.2899 11.7095V22.3171" stroke="#222222" stroke-width="1.56" stroke-linecap="round"/>
</svg>
