<svg width="181" height="176" viewBox="0 0 181 176" fill="none" xmlns="http://www.w3.org/2000/svg">
<path d="M2.19922 69.1317C2.19922 51.1377 2.19922 42.1407 7.96957 36.5507C13.7398 30.9607 23.027 30.9607 41.6014 30.9607H140.107C158.681 30.9607 167.968 30.9607 173.739 36.5507C179.509 42.1407 179.509 51.1377 179.509 69.1317V78.6744H2.19922V69.1317Z" stroke="black" stroke-width="3"/>
<path d="M159.808 30.9607H21.9003C11.0197 30.9607 2.19922 39.5056 2.19922 50.0462V155.016C2.19922 165.557 11.0197 174.102 21.9003 174.102H159.808C170.689 174.102 179.509 165.557 179.509 155.016V50.0462C179.509 39.5056 170.689 30.9607 159.808 30.9607Z" stroke="#222222" stroke-width="3"/>
<path d="M41.6016 2.33276V50.0465" stroke="#222222" stroke-width="3" stroke-linecap="round"/>
<path d="M140.107 2.33276V50.0465" stroke="#222222" stroke-width="3" stroke-linecap="round"/>
</svg>
