<svg width="28" height="28" viewBox="0 0 28 28" fill="none" xmlns="http://www.w3.org/2000/svg">
<path d="M18.7895 19.1992H27M22.8947 15.2988V23.0996M25.6316 11.3984V8.79813C25.6311 8.34214 25.5044 7.89429 25.2642 7.49951C25.024 7.10473 24.6788 6.7769 24.2632 6.5489L14.6842 1.34837C14.2682 1.12015 13.7962 1 13.3158 1C12.8354 1 12.3634 1.12015 11.9474 1.34837L2.36842 6.5489C1.95278 6.7769 1.60755 7.10473 1.36737 7.49951C1.12718 7.89429 1.00049 8.34214 1 8.79813V19.1992C1.00049 19.6552 1.12718 20.103 1.36737 20.4978C1.60755 20.8926 1.95278 21.2204 2.36842 21.4484L11.9474 26.649C12.3634 26.8772 12.8354 26.9973 13.3158 26.9973C13.7962 26.9973 14.2682 26.8772 14.6842 26.649L17.4211 25.1668M7.1579 3.94864L19.4737 10.6443M1.39684 7.498L13.3158 13.9987M13.3158 13.9987L25.2347 7.498M13.3158 13.9987V27" stroke="#307807" stroke-width="2" stroke-linecap="round" stroke-linejoin="round"/>
</svg>
