<svg width="38" height="38" viewBox="0 0 38 38" fill="none" xmlns="http://www.w3.org/2000/svg">
<g clip-path="url(#clip0_163_485)">
<ellipse cx="18.5" cy="19" rx="11.5" ry="13" fill="white"/>
<path d="M19 0.59375C8.83522 0.59375 0.59375 8.83819 0.59375 19C0.59375 29.1677 8.83522 37.4062 19 37.4062C29.1648 37.4062 37.4062 29.1677 37.4062 19C37.4062 8.83819 29.1648 0.59375 19 0.59375ZM19 8.75781C20.7216 8.75781 22.1172 10.1534 22.1172 11.875C22.1172 13.5966 20.7216 14.9922 19 14.9922C17.2784 14.9922 15.8828 13.5966 15.8828 11.875C15.8828 10.1534 17.2784 8.75781 19 8.75781ZM23.1562 27.6094C23.1562 28.1012 22.7575 28.5 22.2656 28.5H15.7344C15.2425 28.5 14.8438 28.1012 14.8438 27.6094V25.8281C14.8438 25.3363 15.2425 24.9375 15.7344 24.9375H16.625V20.1875H15.7344C15.2425 20.1875 14.8438 19.7887 14.8438 19.2969V17.5156C14.8438 17.0238 15.2425 16.625 15.7344 16.625H20.4844C20.9762 16.625 21.375 17.0238 21.375 17.5156V24.9375H22.2656C22.7575 24.9375 23.1562 25.3363 23.1562 25.8281V27.6094Z" fill="#2E5AC2" stroke="#2E5AC2"/>
</g>
<defs>
<clipPath id="clip0_163_485">
<rect width="38" height="38" fill="white"/>
</clipPath>
</defs>
</svg>
