<svg width="28" height="28" viewBox="0 0 28 28" fill="none" xmlns="http://www.w3.org/2000/svg">
<path d="M14.7841 20.3836C14.5827 20.6038 14.2983 20.7292 13.9999 20.7292C13.7016 20.7292 13.4171 20.6038 13.2158 20.3836L7.54911 14.1857C7.15315 13.7526 7.18324 13.0806 7.61631 12.6846C8.0494 12.2887 8.72145 12.3187 9.11741 12.7518L12.9374 16.9299V1.25C12.9374 0.663202 13.4131 0.1875 13.9999 0.1875C14.5867 0.1875 15.0624 0.663202 15.0624 1.25V16.9299L18.8825 12.7518C19.2784 12.3187 19.9505 12.2887 20.3836 12.6846C20.8166 13.0806 20.8467 13.7526 20.4507 14.1857L14.7841 20.3836Z" fill="#9E9E9D"/>
<path d="M2.3125 18.25C2.3125 17.6632 1.83681 17.1875 1.25 17.1875C0.663203 17.1875 0.187501 17.6632 0.187501 18.25V18.3278C0.187472 20.2652 0.187444 21.8268 0.352571 23.055C0.524016 24.3302 0.890777 25.4037 1.7435 26.2564C2.59622 27.1093 3.66987 27.476 4.94502 27.6475C6.17323 27.8125 7.73485 27.8125 9.67227 27.8125H18.3278C20.2652 27.8125 21.8268 27.8125 23.055 27.6475C24.3302 27.476 25.4037 27.1093 26.2566 26.2564C27.1093 25.4037 27.476 24.3302 27.6475 23.055C27.8125 21.8268 27.8125 20.2652 27.8125 18.3278V18.25C27.8125 17.6632 27.3368 17.1875 26.75 17.1875C26.1632 17.1875 25.6875 17.6632 25.6875 18.25C25.6875 20.2835 25.6852 21.7017 25.5414 22.7719C25.4016 23.8114 25.146 24.3618 24.7539 24.7539C24.3618 25.146 23.8114 25.4016 22.7719 25.5414C21.7017 25.6852 20.2835 25.6875 18.25 25.6875H9.75C7.7165 25.6875 6.29825 25.6852 5.22817 25.5414C4.18866 25.4016 3.63817 25.146 3.2461 24.7539C2.85402 24.3618 2.59838 23.8114 2.45863 22.7719C2.31475 21.7017 2.3125 20.2835 2.3125 18.25Z" fill="#9E9E9D"/>
</svg>
