<svg width="45" height="45" viewBox="0 0 45 45" fill="none" xmlns="http://www.w3.org/2000/svg">
<rect x="-1.25" y="1.25" width="41.5" height="41.5" rx="7.25" transform="matrix(1 0 0 -1 3 44.5)" fill="#A1A1A1" stroke="white" stroke-width="2.5"/>
<path fill-rule="evenodd" clip-rule="evenodd" d="M34.6462 11.1326C33.1361 9.62248 30.6879 9.62247 29.1778 11.1326L27.0126 13.2977L16.8222 23.4881C16.657 23.6533 16.5399 23.8603 16.4832 24.0869L15.1943 29.2427C15.0844 29.682 15.2131 30.1466 15.5333 30.4667C15.8534 30.7869 16.3181 30.9156 16.7573 30.8058L21.913 29.5169C22.1398 29.4601 22.3466 29.343 22.5119 29.1777L32.6281 19.0615L34.8674 16.8222C36.3775 15.3122 36.3775 12.8638 34.8674 11.3537L34.6462 11.1326ZM31.0006 12.9554C31.5039 12.4521 32.3201 12.4521 32.8234 12.9554L33.0446 13.1766C33.5479 13.6799 33.5479 14.496 33.0446 14.9994L31.7344 16.3096L29.7296 14.2265L31.0006 12.9554ZM27.9064 16.0496L29.9112 18.1328L20.9416 27.1025L18.2162 27.7839L18.8975 25.0585L27.9064 16.0496ZM12.5779 17.9548C12.5779 17.243 13.155 16.6659 13.8668 16.6659H20.3115C21.0234 16.6659 21.6005 16.0888 21.6005 15.3769C21.6005 14.6651 21.0234 14.088 20.3115 14.088H13.8668C11.7312 14.088 10 15.8192 10 17.9548V32.1332C10 34.2688 11.7312 36 13.8668 36H28.0452C30.1808 36 31.912 34.2688 31.912 32.1332V25.6884C31.912 24.9767 31.3349 24.3995 30.6231 24.3995C29.9112 24.3995 29.3341 24.9767 29.3341 25.6884V32.1332C29.3341 32.845 28.7571 33.4221 28.0452 33.4221H13.8668C13.155 33.4221 12.5779 32.845 12.5779 32.1332V17.9548Z" fill="white"/>
</svg>
