<svg width="18" height="18" viewBox="0 0 18 18" fill="none" xmlns="http://www.w3.org/2000/svg">
<path d="M4.2 13.8H5.8M9 13.8H13.8M5 1H13C13.8837 1 14.6 1.71634 14.6 2.6V5.8C14.6 6.68366 13.8837 7.4 13 7.4H5C4.11634 7.4 3.4 6.68366 3.4 5.8V2.6C3.4 1.71634 4.11634 1 5 1ZM2.6 10.6H15.4C16.2837 10.6 17 11.3163 17 12.2V15.4C17 16.2837 16.2837 17 15.4 17H2.6C1.71634 17 1 16.2837 1 15.4V12.2C1 11.3163 1.71634 10.6 2.6 10.6Z" stroke="black" stroke-width="2" stroke-linecap="round" stroke-linejoin="round"/>
</svg>
