<svg width="39" height="39" viewBox="0 0 39 39" fill="none" xmlns="http://www.w3.org/2000/svg">
<rect width="39" height="39" rx="3" transform="matrix(1 0 0 -1 0 39)" fill="#FFC107"/>
<path fill-rule="evenodd" clip-rule="evenodd" d="M19 15.625C16.5838 15.625 14.625 17.5838 14.625 20C14.625 22.4163 16.5838 24.375 19 24.375C21.4163 24.375 23.375 22.4163 23.375 20C23.375 17.5838 21.4163 15.625 19 15.625ZM16.375 20C16.375 18.5503 17.5503 17.375 19 17.375C20.4497 17.375 21.625 18.5503 21.625 20C21.625 21.4497 20.4497 22.625 19 22.625C17.5503 22.625 16.375 21.4497 16.375 20Z" fill="white"/>
<path fill-rule="evenodd" clip-rule="evenodd" d="M18.9997 9.79175C13.7332 9.79175 10.1858 12.9466 8.12701 15.6214L8.08987 15.6696C7.62425 16.2744 7.19541 16.8313 6.90448 17.4899C6.59292 18.1951 6.45801 18.9637 6.45801 20.0001C6.45801 21.0364 6.59292 21.805 6.90448 22.5103C7.19541 23.1689 7.62425 23.7258 8.08988 24.3305L8.12701 24.3787C10.1858 27.0535 13.7332 30.2084 18.9997 30.2084C24.2661 30.2084 27.8135 27.0535 29.8723 24.3787L29.9094 24.3305C30.3751 23.7258 30.8039 23.1689 31.0949 22.5103C31.4065 21.805 31.5413 21.0364 31.5413 20.0001C31.5413 18.9637 31.4065 18.1951 31.0949 17.4899C30.8039 16.8313 30.3751 16.2744 29.9094 15.6696L29.8723 15.6214C27.8135 12.9466 24.2661 9.79175 18.9997 9.79175ZM9.51376 16.6888C11.4148 14.2192 14.5084 11.5417 18.9997 11.5417C23.4909 11.5417 26.5846 14.2192 28.4856 16.6888C28.9973 17.3536 29.297 17.7509 29.4941 18.197C29.6784 18.6141 29.7913 19.1238 29.7913 20.0001C29.7913 20.8764 29.6784 21.3861 29.4941 21.8032C29.297 22.2493 28.9973 22.6465 28.4856 23.3113C26.5846 25.781 23.4909 28.4584 18.9997 28.4584C14.5084 28.4584 11.4148 25.781 9.51376 23.3113C9.00209 22.6465 8.70237 22.2493 8.50523 21.8032C8.32099 21.3861 8.20801 20.8764 8.20801 20.0001C8.20801 19.1238 8.32099 18.6141 8.50523 18.197C8.70237 17.7509 9.00208 17.3536 9.51376 16.6888Z" fill="white"/>
</svg>
