<svg width="28" height="28" viewBox="0 0 28 28" fill="none" xmlns="http://www.w3.org/2000/svg">
<path fill-rule="evenodd" clip-rule="evenodd" d="M14 9.625C11.5838 9.625 9.625 11.5838 9.625 14C9.625 16.4163 11.5838 18.375 14 18.375C16.4163 18.375 18.375 16.4163 18.375 14C18.375 11.5838 16.4163 9.625 14 9.625ZM11.375 14C11.375 12.5503 12.5503 11.375 14 11.375C15.4497 11.375 16.625 12.5503 16.625 14C16.625 15.4497 15.4497 16.625 14 16.625C12.5503 16.625 11.375 15.4497 11.375 14Z" fill="#9E9E9D"/>
<path fill-rule="evenodd" clip-rule="evenodd" d="M14.0002 3.79175C8.73368 3.79175 5.18633 6.94665 3.12749 9.62142L3.09036 9.66965C2.62474 10.2744 2.1959 10.8313 1.90497 11.4899C1.59341 12.1951 1.4585 12.9637 1.4585 14.0001C1.4585 15.0364 1.59341 15.805 1.90497 16.5103C2.1959 17.1689 2.62474 17.7258 3.09037 18.3305L3.12749 18.3787C5.18633 21.0535 8.73368 24.2084 14.0002 24.2084C19.2666 24.2084 22.814 21.0535 24.8728 18.3787L24.9099 18.3305C25.3756 17.7258 25.8044 17.1689 26.0953 16.5103C26.407 15.805 26.5418 15.0364 26.5418 14.0001C26.5418 12.9637 26.407 12.1951 26.0953 11.4899C25.8044 10.8313 25.3756 10.2744 24.9099 9.66962L24.8728 9.62142C22.814 6.94665 19.2666 3.79175 14.0002 3.79175ZM4.51425 10.6888C6.41524 8.21916 9.50892 5.54175 14.0002 5.54175C18.4914 5.54175 21.5851 8.21916 23.4861 10.6888C23.9978 11.3536 24.2975 11.7509 24.4946 12.197C24.6789 12.6141 24.7918 13.1238 24.7918 14.0001C24.7918 14.8764 24.6789 15.3861 24.4946 15.8032C24.2975 16.2493 23.9978 16.6465 23.4861 17.3113C21.5851 19.781 18.4914 22.4584 14.0002 22.4584C9.50892 22.4584 6.41524 19.781 4.51425 17.3113C4.00258 16.6465 3.70286 16.2493 3.50572 15.8032C3.32148 15.3861 3.2085 14.8764 3.2085 14.0001C3.2085 13.1238 3.32148 12.6141 3.50572 12.197C3.70286 11.7509 4.00256 11.3536 4.51425 10.6888Z" fill="#9E9E9D"/>
</svg>
