<svg width="64" height="63" viewBox="0 0 64 63" fill="none" xmlns="http://www.w3.org/2000/svg">
<g filter="url(#filter0_d_770_573)">
<path d="M8 25.7065C8 20.9368 8 18.5519 9.52956 17.0701C11.0591 15.5884 13.5209 15.5884 18.4444 15.5884H44.5556C49.4791 15.5884 51.9408 15.5884 53.4704 17.0701C55 18.5519 55 20.9368 55 25.7065V28.236H8V25.7065Z" stroke="#2A4157" stroke-opacity="0.24" stroke-width="1.56"/>
<path d="M49.7778 15.5884H13.2222C10.3381 15.5884 8 17.8534 8 20.6474V48.4722C8 51.2662 10.3381 53.5312 13.2222 53.5312H49.7778C52.6619 53.5312 55 51.2662 55 48.4722V20.6474C55 17.8534 52.6619 15.5884 49.7778 15.5884Z" stroke="#222222" stroke-width="1.56"/>
<path d="M18.4443 8V20.6476" stroke="#222222" stroke-width="1.56" stroke-linecap="round"/>
<path d="M44.5557 8V20.6476" stroke="#222222" stroke-width="1.56" stroke-linecap="round"/>
</g>
<defs>
<filter id="filter0_d_770_573" x="-4" y="0" width="72" height="70" filterUnits="userSpaceOnUse" color-interpolation-filters="sRGB">
<feFlood flood-opacity="0" result="BackgroundImageFix"/>
<feColorMatrix in="SourceAlpha" type="matrix" values="0 0 0 0 0 0 0 0 0 0 0 0 0 0 0 0 0 0 127 0" result="hardAlpha"/>
<feOffset dy="4"/>
<feGaussianBlur stdDeviation="2"/>
<feComposite in2="hardAlpha" operator="out"/>
<feColorMatrix type="matrix" values="0 0 0 0 0 0 0 0 0 0 0 0 0 0 0 0 0 0 0.25 0"/>
<feBlend mode="normal" in2="BackgroundImageFix" result="effect1_dropShadow_770_573"/>
<feBlend mode="normal" in="SourceGraphic" in2="effect1_dropShadow_770_573" result="shape"/>
</filter>
</defs>
</svg>
