<svg width="24" height="24" viewBox="0 0 24 24" fill="none" xmlns="http://www.w3.org/2000/svg">
<path d="M12 17.4167V10.9167" stroke="#28A745" stroke-width="1.5" stroke-linecap="round"/>
<path d="M11.9998 6.58333C12.5981 6.58333 13.0832 7.06836 13.0832 7.66667C13.0832 8.26498 12.5981 8.75 11.9998 8.75C11.4015 8.75 10.9165 8.26498 10.9165 7.66667C10.9165 7.06836 11.4015 6.58333 11.9998 6.58333Z" fill="#28A745"/>
<path d="M1.1665 12.0001C1.1665 6.89319 1.1665 4.33976 2.75301 2.75326C4.33951 1.16675 6.89295 1.16675 11.9998 1.16675C17.1067 1.16675 19.6602 1.16675 21.2466 2.75326C22.8332 4.33976 22.8332 6.89319 22.8332 12.0001C22.8332 17.1069 22.8332 19.6604 21.2466 21.2469C19.6602 22.8334 17.1067 22.8334 11.9998 22.8334C6.89295 22.8334 4.33951 22.8334 2.75301 21.2469C1.1665 19.6604 1.1665 17.1069 1.1665 12.0001Z" stroke="#28A745" stroke-width="1.5"/>
</svg>
