<svg width="45" height="45" viewBox="0 0 45 45" fill="none" xmlns="http://www.w3.org/2000/svg">
<rect x="-1.25" y="1.25" width="41.5" height="41.5" rx="7.25" transform="matrix(1 0 0 -1 3 44.5)" fill="#A1A1A1" stroke="white" stroke-width="2.5"/>
<path d="M33.8338 23.1141C33.8338 25.2568 33.1985 27.3514 32.008 29.133C30.8176 30.9146 29.1256 32.3032 27.146 33.1232C25.1664 33.9432 22.988 34.1577 20.8865 33.7397C18.7849 33.3217 16.8545 32.2898 15.3394 30.7747C13.8243 29.2596 12.7925 27.3292 12.3744 25.2276C11.9564 23.1261 12.171 20.9478 12.9909 18.9682C13.8109 16.9885 15.1995 15.2965 16.9811 14.1061C18.7627 12.9157 20.8573 12.2803 23.0001 12.2803C24.4228 12.2803 25.8316 12.5605 27.146 13.1049C28.4604 13.6494 29.6547 14.4474 30.6607 15.4534C31.6667 16.4594 32.4647 17.6537 33.0092 18.9682C33.5536 20.2826 33.8338 21.6913 33.8338 23.1141ZM19.3737 14.5286C17.236 15.4273 15.5085 17.0883 14.5266 19.1892C13.5447 21.29 13.3785 23.6808 14.0603 25.8973C14.7421 28.1138 16.2232 29.9979 18.216 31.1837C20.2089 32.3695 22.5713 32.7725 24.8445 32.3144C27.1178 31.8564 29.1398 30.5699 30.5178 28.7048C31.8959 26.8396 32.5317 24.529 32.3018 22.2214C32.072 19.9139 30.9928 17.7741 29.2739 16.2175C27.555 14.6608 25.319 13.7985 23.0001 13.7979C21.7545 13.7958 20.5213 14.0443 19.3737 14.5286ZM23.0055 16.3568C23.3132 16.3563 23.614 16.447 23.8701 16.6175C24.1261 16.7881 24.3258 17.0308 24.4438 17.3149C24.5618 17.5989 24.5929 17.9117 24.5332 18.2134C24.4734 18.5152 24.3254 18.7924 24.108 19.0101C23.8905 19.2277 23.6134 19.3759 23.3117 19.4359C23.01 19.496 22.6972 19.4652 22.4131 19.3474C22.1289 19.2296 21.886 19.0301 21.7152 18.7743C21.5445 18.5184 21.4535 18.2176 21.4537 17.91C21.4537 17.4979 21.6173 17.1027 21.9086 16.8112C22.1998 16.5197 22.5948 16.3558 23.0069 16.3554L23.0055 16.3568ZM24.0893 28.9777V21.8579C24.0945 21.7124 24.0703 21.5674 24.0182 21.4314C23.9661 21.2955 23.8871 21.1715 23.7861 21.0667C23.685 20.962 23.5638 20.8787 23.4298 20.8218C23.2959 20.7649 23.1518 20.7356 23.0062 20.7356C22.8606 20.7356 22.7166 20.7649 22.5826 20.8218C22.4486 20.8787 22.3274 20.962 22.2264 21.0667C22.1253 21.1715 22.0463 21.2955 21.9942 21.4314C21.9421 21.5674 21.9179 21.7124 21.9231 21.8579V28.9777C21.9331 29.2583 22.0516 29.5241 22.2536 29.7191C22.4556 29.9141 22.7254 30.023 23.0062 30.023C23.287 30.023 23.5568 29.9141 23.7588 29.7191C23.9609 29.5241 24.0793 29.2583 24.0893 28.9777Z" fill="white"/>
</svg>
