<svg xmlns="http://www.w3.org/2000/svg" width="800px" height="800px" viewBox="-3 -3 30 30" fill="none" transform="matrix(-1, 0, 0, 1, 0, 0)"><g id="deeditor_bgCarrier" stroke-width="0">
    <rect id="dee_c_e" x="-3" y="-3" width="30" height="30" rx="0" fill="#30a444" strokewidth="0"/>
  </g>
<path fill-rule="evenodd" clip-rule="evenodd" d="M12 4C12.5523 4 13 4.44772 13 5V11H19C19.5523 11 20 11.4477 20 12C20 12.5523 19.5523 13 19 13H13V19C13 19.5523 12.5523 20 12 20C11.4477 20 11 19.5523 11 19V13H5C4.44772 13 4 12.5523 4 12C4 11.4477 4.44772 11 5 11H11V5C11 4.44772 11.4477 4 12 4Z" fill="#ffffff"/>
</svg>