<svg width="34" height="34" viewBox="0 0 34 34" fill="none" xmlns="http://www.w3.org/2000/svg">
<path d="M18.4166 4.25004C18.4166 3.46764 17.7823 2.83337 16.9999 2.83337C16.2175 2.83337 15.5833 3.46764 15.5833 4.25004V15.5834H4.24992C3.46752 15.5834 2.83325 16.2176 2.83325 17C2.83325 17.7825 3.46752 18.4167 4.24992 18.4167H15.5833V29.75C15.5833 30.5325 16.2175 31.1667 16.9999 31.1667C17.7823 31.1667 18.4166 30.5325 18.4166 29.75V18.4167H29.7499C30.5323 18.4167 31.1666 17.7825 31.1666 17C31.1666 16.2176 30.5323 15.5834 29.7499 15.5834H18.4166V4.25004Z" fill="white" stroke="white" stroke-width="1.704"/>
</svg>
