<svg width="20" height="20" viewBox="0 0 20 20" fill="none" xmlns="http://www.w3.org/2000/svg">
<path d="M10.009 7.00923V11.0061M10.009 15.003H10.018M18.759 16.0022L11.5648 2.01311C11.4079 1.70555 11.1804 1.44973 10.9055 1.27175C10.6306 1.09377 10.3182 1 10 1C9.68187 1 9.3694 1.09377 9.09451 1.27175C8.81962 1.44973 8.59214 1.70555 8.43527 2.01311L1.241 16.0022C1.08244 16.3074 0.999302 16.6536 1 17.006C1.00071 17.3583 1.08523 17.7042 1.245 18.0085C1.40478 18.3129 1.63412 18.5648 1.9098 18.739C2.18547 18.9131 2.49767 19.0031 2.81475 18.9999H17.2033C17.5188 18.9996 17.8288 18.907 18.1019 18.7314C18.3751 18.5559 18.6019 18.3035 18.7595 17.9998C18.9171 17.6961 19.0001 17.3516 19 17.001C18.9999 16.6503 18.9168 16.3059 18.759 16.0022Z" stroke="black" stroke-width="2" stroke-linecap="round" stroke-linejoin="round"/>
</svg>
