<svg width="31" height="31" viewBox="0 0 31 31" fill="none" xmlns="http://www.w3.org/2000/svg">
<path d="M16.4847 10.4889C16.806 10.0881 16.7415 9.50282 16.3406 9.1816C15.9398 8.86039 15.3546 8.92488 15.0334 9.32567L16.4847 10.4889ZM8.44552 19.0325L9.14988 19.6397C9.15715 19.6313 9.16425 19.6227 9.17121 19.614L8.44552 19.0325ZM8.23348 19.5508L7.30529 19.4902L7.30448 19.5078L8.23348 19.5508ZM8.05988 23.2993L7.13088 23.2563C7.12874 23.3024 7.13004 23.3487 7.13479 23.3947L8.05988 23.2993ZM9.03576 24.1512L9.06617 25.0807C9.12819 25.0786 9.18985 25.0704 9.25023 25.056L9.03576 24.1512ZM12.7558 23.2696L12.9703 24.1745L12.9847 24.1709L12.7558 23.2696ZM13.2332 22.967L13.9506 23.5589L13.9587 23.5488L13.2332 22.967ZM21.4483 14.2091C21.7696 13.8084 21.7052 13.2231 21.3046 12.9018C20.9039 12.5804 20.3185 12.6448 19.9972 13.0455L21.4483 14.2091ZM15.0372 9.32542C14.716 9.7261 14.7802 10.3114 15.181 10.6328C15.5816 10.9541 16.1669 10.8898 16.4883 10.4892L15.0372 9.32542ZM17.7319 7.45208L18.4574 8.03395C18.4696 8.01871 18.4813 8.00309 18.4926 7.9871L17.7319 7.45208ZM19.7518 7.05528L20.3468 6.34049C20.3172 6.31584 20.286 6.29307 20.2537 6.27227L19.7518 7.05528ZM22.5257 9.36416L23.1839 8.70716C23.1637 8.68693 23.1426 8.66767 23.1207 8.64937L22.5257 9.36416ZM22.5146 11.3953L21.8636 10.7311C21.8373 10.7569 21.8125 10.7843 21.7893 10.8131L22.5146 11.3953ZM19.9972 13.0455C19.6757 13.446 19.7401 14.031 20.1406 14.3525C20.5411 14.674 21.1268 14.6097 21.4483 14.2091L19.9972 13.0455ZM16.6825 9.76947C16.6063 9.26151 16.1329 8.91144 15.625 8.98756C15.117 9.06367 14.7669 9.53715 14.8431 10.0451L16.6825 9.76947ZM20.848 14.5488C21.3569 14.4797 21.7134 14.011 21.6443 13.5021C21.5751 12.9931 21.1065 12.6366 20.5975 12.7057L20.848 14.5488ZM15.0334 9.32567L7.71984 18.4508L9.17121 19.614L16.4847 10.4889L15.0334 9.32567ZM7.74117 18.4251C7.48404 18.7234 7.33092 19.0972 7.30529 19.4902L9.16151 19.6113C9.16083 19.6217 9.15675 19.6318 9.14988 19.6397L7.74117 18.4251ZM7.30448 19.5078L7.13088 23.2563L8.98889 23.3424L9.16249 19.5938L7.30448 19.5078ZM7.13479 23.3947C7.23606 24.3766 8.07957 25.113 9.06617 25.0807L9.00536 23.2217C9.00139 23.2218 8.99944 23.2212 8.99818 23.2207C8.99641 23.2201 8.99406 23.2189 8.99167 23.2167C8.98926 23.2146 8.98771 23.2125 8.98683 23.2109C8.9862 23.2097 8.98538 23.2078 8.98497 23.2038L7.13479 23.3947ZM9.25023 25.056L12.9703 24.1745L12.5412 22.3646L8.82129 23.2463L9.25023 25.056ZM12.9847 24.1709C13.3635 24.0747 13.7019 23.8604 13.9506 23.5589L12.5157 22.3752C12.5187 22.3717 12.5225 22.3692 12.5269 22.3681L12.9847 24.1709ZM13.9587 23.5488L21.4483 14.2091L19.9972 13.0455L12.5076 22.3852L13.9587 23.5488ZM16.4883 10.4892L18.4574 8.03395L17.0064 6.87022L15.0372 9.32542L16.4883 10.4892ZM18.4926 7.9871C18.6645 7.74267 18.9984 7.67707 19.25 7.8383L20.2537 6.27227C19.1633 5.57358 17.7161 5.85786 16.9711 6.91707L18.4926 7.9871ZM19.1569 7.77007L21.9308 10.0789L23.1207 8.64937L20.3468 6.34049L19.1569 7.77007ZM21.8675 10.0212C21.9616 10.1155 22.0142 10.2436 22.0135 10.3769L23.8735 10.3872C23.877 9.7576 23.6287 9.15275 23.1839 8.70716L21.8675 10.0212ZM22.0135 10.3769C22.0129 10.5103 21.9588 10.6378 21.8636 10.7311L23.1656 12.0595C23.6152 11.6188 23.87 11.0167 23.8735 10.3872L22.0135 10.3769ZM21.7893 10.8131L19.9972 13.0455L21.4483 14.2091L23.2398 11.9775L21.7893 10.8131ZM14.8431 10.0451C15.2762 12.9359 17.9515 14.9424 20.848 14.5488L20.5975 12.7057C18.7091 12.9623 16.9649 11.6542 16.6825 9.76947L14.8431 10.0451Z" fill="#9E9E9D"/>
</svg>
