<svg width="39" height="39" viewBox="0 0 39 39" fill="none" xmlns="http://www.w3.org/2000/svg">
<rect width="39" height="39" rx="3" transform="matrix(1 0 0 -1 0 39)" fill="#007BFF"/>
<path d="M20.4847 14.4889C20.806 14.0881 20.7415 13.5028 20.3406 13.1816C19.9398 12.8604 19.3546 12.9249 19.0334 13.3257L20.4847 14.4889ZM12.4455 23.0325L13.1499 23.6397C13.1571 23.6313 13.1643 23.6227 13.1712 23.614L12.4455 23.0325ZM12.2335 23.5508L11.3053 23.4902L11.3045 23.5078L12.2335 23.5508ZM12.0599 27.2993L11.1309 27.2563C11.1287 27.3024 11.13 27.3487 11.1348 27.3947L12.0599 27.2993ZM13.0358 28.1512L13.0662 29.0807C13.1282 29.0786 13.1898 29.0704 13.2502 29.056L13.0358 28.1512ZM16.7558 27.2696L16.9703 28.1745L16.9847 28.1709L16.7558 27.2696ZM17.2332 26.967L17.9506 27.5589L17.9587 27.5488L17.2332 26.967ZM25.4483 18.2091C25.7696 17.8084 25.7052 17.2231 25.3046 16.9018C24.9039 16.5804 24.3185 16.6448 23.9972 17.0455L25.4483 18.2091ZM19.0372 13.3254C18.716 13.7261 18.7802 14.3114 19.181 14.6328C19.5816 14.9541 20.1669 14.8898 20.4883 14.4892L19.0372 13.3254ZM21.7319 11.4521L22.4574 12.034C22.4696 12.0187 22.4813 12.0031 22.4926 11.9871L21.7319 11.4521ZM23.7518 11.0553L24.3468 10.3405C24.3172 10.3158 24.286 10.2931 24.2537 10.2723L23.7518 11.0553ZM26.5257 13.3642L27.1839 12.7072C27.1637 12.6869 27.1426 12.6677 27.1207 12.6494L26.5257 13.3642ZM26.5146 15.3953L25.8636 14.7311C25.8373 14.7569 25.8125 14.7843 25.7893 14.8131L26.5146 15.3953ZM23.9972 17.0455C23.6757 17.446 23.7401 18.031 24.1406 18.3525C24.5411 18.674 25.1268 18.6097 25.4483 18.2091L23.9972 17.0455ZM20.6825 13.7695C20.6063 13.2615 20.1329 12.9114 19.625 12.9876C19.117 13.0637 18.7669 13.5372 18.8431 14.0451L20.6825 13.7695ZM24.848 18.5488C25.3569 18.4797 25.7134 18.011 25.6443 17.5021C25.5751 16.9931 25.1065 16.6366 24.5975 16.7057L24.848 18.5488ZM19.0334 13.3257L11.7198 22.4508L13.1712 23.614L20.4847 14.4889L19.0334 13.3257ZM11.7412 22.4251C11.484 22.7234 11.3309 23.0972 11.3053 23.4902L13.1615 23.6113C13.1608 23.6217 13.1568 23.6318 13.1499 23.6397L11.7412 22.4251ZM11.3045 23.5078L11.1309 27.2563L12.9889 27.3424L13.1625 23.5938L11.3045 23.5078ZM11.1348 27.3947C11.2361 28.3766 12.0796 29.113 13.0662 29.0807L13.0054 27.2217C13.0014 27.2218 12.9994 27.2212 12.9982 27.2207C12.9964 27.2201 12.9941 27.2189 12.9917 27.2167C12.9893 27.2146 12.9877 27.2125 12.9868 27.2109C12.9862 27.2097 12.9854 27.2078 12.985 27.2038L11.1348 27.3947ZM13.2502 29.056L16.9703 28.1745L16.5412 26.3646L12.8213 27.2463L13.2502 29.056ZM16.9847 28.1709C17.3635 28.0747 17.7019 27.8604 17.9506 27.5589L16.5157 26.3752C16.5187 26.3717 16.5225 26.3692 16.5269 26.3681L16.9847 28.1709ZM17.9587 27.5488L25.4483 18.2091L23.9972 17.0455L16.5076 26.3852L17.9587 27.5488ZM20.4883 14.4892L22.4574 12.034L21.0064 10.8702L19.0372 13.3254L20.4883 14.4892ZM22.4926 11.9871C22.6645 11.7427 22.9984 11.6771 23.25 11.8383L24.2537 10.2723C23.1633 9.57358 21.7161 9.85786 20.9711 10.9171L22.4926 11.9871ZM23.1569 11.7701L25.9308 14.0789L27.1207 12.6494L24.3468 10.3405L23.1569 11.7701ZM25.8675 14.0212C25.9616 14.1155 26.0142 14.2436 26.0135 14.3769L27.8735 14.3872C27.877 13.7576 27.6287 13.1528 27.1839 12.7072L25.8675 14.0212ZM26.0135 14.3769C26.0129 14.5103 25.9588 14.6378 25.8636 14.7311L27.1656 16.0595C27.6152 15.6188 27.87 15.0167 27.8735 14.3872L26.0135 14.3769ZM25.7893 14.8131L23.9972 17.0455L25.4483 18.2091L27.2398 15.9775L25.7893 14.8131ZM18.8431 14.0451C19.2762 16.9359 21.9515 18.9424 24.848 18.5488L24.5975 16.7057C22.7091 16.9623 20.9649 15.6542 20.6825 13.7695L18.8431 14.0451Z" fill="white"/>
</svg>
