<svg width="39" height="39" viewBox="0 0 39 39" fill="none" xmlns="http://www.w3.org/2000/svg">
<rect width="39" height="39" rx="3" transform="matrix(1 0 0 -1 0 39)" fill="#007BFF"/>
<path d="M10.2392 21.1667C10.1915 20.7845 10.167 20.3952 10.167 20.0001C10.167 14.8454 14.3457 10.6667 19.5003 10.6667C22.4177 10.6667 25.0224 12.0052 26.7339 14.1016M26.7339 14.1016V10.6667M26.7339 14.1016V14.1667L23.2339 14.1667M28.7614 18.8334C28.8092 19.2156 28.8337 19.6049 28.8337 20.0001C28.8337 25.1548 24.655 29.3334 19.5003 29.3334C16.7127 29.3334 14.2105 28.1113 12.5003 26.1736M12.5003 26.1736V25.8334H16.0003M12.5003 26.1736V29.3334" stroke="white" stroke-width="2" stroke-linecap="round" stroke-linejoin="round"/>
</svg>
