<svg width="45" height="45" viewBox="0 0 45 45" fill="none" xmlns="http://www.w3.org/2000/svg">
<path fill-rule="evenodd" clip-rule="evenodd" d="M34.0718 1.875C35.0662 1.875 36.0201 2.27008 36.7234 2.97336L42.0266 8.27664C42.7299 8.97992 43.125 9.93373 43.125 10.9283V37.5C43.125 40.6067 40.6067 43.125 37.5 43.125H7.5C4.39341 43.125 1.875 40.6067 1.875 37.5V7.5C1.875 4.39341 4.39341 1.875 7.5 1.875H34.0718ZM7.5 5.625C6.46448 5.625 5.625 6.46448 5.625 7.5V37.5C5.625 38.5356 6.46448 39.375 7.5 39.375H9.375V28.125C9.375 25.0183 11.8934 22.5 15 22.5H30C33.1067 22.5 35.625 25.0183 35.625 28.125V39.375H37.5C38.5356 39.375 39.375 38.5356 39.375 37.5V12.8033C39.375 11.8087 38.9799 10.8549 38.2766 10.1516L34.8484 6.72336C34.1451 6.02008 33.1912 5.625 32.1968 5.625H31.875V9.375C31.875 12.4816 29.3567 15 26.25 15H18.75C15.6434 15 13.125 12.4816 13.125 9.375V5.625H7.5ZM31.875 39.375V28.125C31.875 27.0894 31.0356 26.25 30 26.25H15C13.9645 26.25 13.125 27.0894 13.125 28.125V39.375H31.875ZM16.875 5.625H28.125V9.375C28.125 10.4105 27.2856 11.25 26.25 11.25H18.75C17.7145 11.25 16.875 10.4105 16.875 9.375V5.625Z" fill="#0F0F0F"/>
</svg>
