<svg width="46" height="46" viewBox="0 0 46 46" fill="none" xmlns="http://www.w3.org/2000/svg">
<circle cx="23" cy="23" r="23" fill="#66BB6A"/>
<path fill-rule="evenodd" clip-rule="evenodd" d="M24.5 14.75C24.5 14.3353 24.836 14 25.25 14C25.664 14 26 14.3353 26 14.75V17.75C26 18.1647 25.664 18.5 25.25 18.5C24.836 18.5 24.5 18.1647 24.5 17.75V14.75ZM17.75 20H28.25C28.664 20 29 19.6647 29 19.25V11H17V19.25C17 19.6647 17.336 20 17.75 20ZM32 11H30.5V20C30.5 20.828 29.828 21.5 29 21.5H17C16.172 21.5 15.5 20.828 15.5 20V11H14C12.3432 11 11 12.3432 11 14V32C11 33.6568 12.3432 35 14 35H32C33.6568 35 35 33.6568 35 32V14C35 12.3432 33.6568 11 32 11Z" fill="white"/>
</svg>
