<svg width="39" height="39" viewBox="0 0 39 39" fill="none" xmlns="http://www.w3.org/2000/svg">
<rect width="39" height="39" rx="3" transform="matrix(1 0 0 -1 0 39)" fill="#DC3545"/>
<path d="M20.0003 9.20825C18.8587 9.20825 17.8852 9.93745 17.5244 10.9582C17.3634 11.4138 16.8635 11.6526 16.4079 11.4916C15.9522 11.3305 15.7134 10.8306 15.8745 10.375C16.4746 8.67694 18.094 7.45825 20.0003 7.45825C21.9066 7.45825 23.5259 8.67694 24.1262 10.375C24.2872 10.8306 24.0484 11.3305 23.5928 11.4916C23.1371 11.6526 22.6372 11.4138 22.4762 10.9582C22.1154 9.93745 21.1418 9.20825 20.0003 9.20825Z" fill="white"/>
<path d="M9.20898 13C9.20898 12.5168 9.60074 12.125 10.084 12.125H29.9174C30.4007 12.125 30.7924 12.5168 30.7924 13C30.7924 13.4832 30.4007 13.875 29.9174 13.875H10.084C9.60074 13.875 9.20898 13.4832 9.20898 13Z" fill="white"/>
<path d="M12.9014 15.8583C12.8693 15.3762 12.4523 15.0113 11.9702 15.0435C11.488 15.0756 11.1231 15.4926 11.1553 15.9747L11.696 24.0851C11.7957 25.5817 11.8763 26.7905 12.0653 27.7391C12.2617 28.7253 12.5959 29.549 13.2861 30.1947C13.9763 30.8404 14.8204 31.119 15.8175 31.2495C16.7765 31.3749 17.9881 31.3749 19.488 31.3749H20.5132C22.0131 31.3749 23.2246 31.3749 24.1837 31.2495C25.1807 31.119 26.0249 30.8404 26.7151 30.1947C27.4053 29.549 27.7394 28.7253 27.9359 27.7391C28.1248 26.7905 28.2054 25.5817 28.3052 24.0851L28.8459 15.9747C28.878 15.4926 28.5132 15.0756 28.031 15.0435C27.5488 15.0113 27.1318 15.3762 27.0998 15.8583L26.5631 23.9073C26.4583 25.4798 26.3835 26.5739 26.2196 27.3971C26.0605 28.1957 25.8385 28.6184 25.5195 28.9168C25.2005 29.2151 24.764 29.4087 23.9566 29.5143C23.1243 29.6231 22.0277 29.6249 20.4517 29.6249H19.5494C17.9735 29.6249 16.8768 29.6231 16.0445 29.5143C15.2372 29.4087 14.8006 29.2151 14.4816 28.9168C14.1627 28.6184 13.9406 28.1957 13.7815 27.3971C13.6175 26.5739 13.5428 25.4798 13.438 23.9073L12.9014 15.8583Z" fill="white"/>
<path d="M16.997 17.9627C17.4778 17.9146 17.9066 18.2654 17.9547 18.7463L18.5381 24.5796C18.5861 25.0604 18.2353 25.4893 17.7544 25.5374C17.2736 25.5854 16.8448 25.2346 16.7967 24.7537L16.2134 18.9204C16.1653 18.4396 16.5161 18.0107 16.997 17.9627Z" fill="white"/>
<path d="M23.7881 18.9204C23.8362 18.4396 23.4853 18.0107 23.0044 17.9627C22.5237 17.9146 22.0948 18.2654 22.0467 18.7463L21.4634 24.5796C21.4153 25.0604 21.7661 25.4893 22.247 25.5374C22.7278 25.5854 23.1566 25.2346 23.2048 24.7537L23.7881 18.9204Z" fill="white"/>
</svg>
