<svg width="31" height="38" viewBox="0 0 31 38" fill="none" xmlns="http://www.w3.org/2000/svg">
<path d="M27.3394 11.5092H3.66055C3.30581 11.5092 2.99541 11.6422 2.72936 11.9083C2.4633 12.1743 2.33028 12.4847 2.33028 12.8394L4.01529 35.2324C4.04485 35.6167 4.22222 35.9345 4.5474 36.1858C4.87258 36.4371 5.316 36.5627 5.87768 36.5627H25.1223C25.6544 36.5627 26.0831 36.4371 26.4083 36.1858C26.7334 35.9345 26.9256 35.6167 26.9847 35.2324L28.6697 12.8394C28.6697 12.4847 28.5367 12.1743 28.2706 11.9083C28.0046 11.6422 27.6942 11.5092 27.3394 11.5092ZM8.58257 33.9021C8.28695 33.9021 8.0209 33.7691 7.7844 33.5031C7.54791 33.237 7.42966 32.9266 7.42966 32.5719L6.27676 15.4557C6.27676 15.1009 6.40979 14.7979 6.67584 14.5466C6.9419 14.2954 7.25229 14.1697 7.60703 14.1697C7.96177 14.1697 8.27217 14.2954 8.53823 14.5466C8.80428 14.7979 8.93731 15.1009 8.93731 15.4557L9.73547 32.5719C9.73547 32.9266 9.62462 33.237 9.40291 33.5031C9.18119 33.7691 8.90775 33.9021 8.58257 33.9021ZM16.6529 32.5275C16.6529 32.9118 16.542 33.237 16.3203 33.5031C16.0986 33.7691 15.8252 33.9021 15.5 33.9021C15.1748 33.9021 14.9014 33.7691 14.6797 33.5031C14.458 33.237 14.3471 32.9118 14.3471 32.5275L14.1697 15.4557C14.1697 15.1009 14.3028 14.7979 14.5688 14.5466C14.8349 14.2954 15.1453 14.1697 15.5 14.1697C15.8547 14.1697 16.1651 14.2954 16.4312 14.5466C16.6972 14.7979 16.8303 15.1009 16.8303 15.4557L16.6529 32.5275ZM23.5703 32.5719C23.5703 32.9266 23.4521 33.237 23.2156 33.5031C22.9791 33.7691 22.713 33.9021 22.4174 33.9021C22.0923 33.9021 21.8188 33.7691 21.5971 33.5031C21.3754 33.237 21.2645 32.9266 21.2645 32.5719L22.0627 15.4557C22.0627 15.1009 22.1957 14.7979 22.4618 14.5466C22.7278 14.2954 23.0382 14.1697 23.393 14.1697C23.7477 14.1697 24.0581 14.2954 24.3242 14.5466C24.5902 14.7979 24.7232 15.1009 24.7232 15.4557L23.5703 32.5719ZM28.0489 5.74465L20.1116 4.41437C19.7569 4.35525 19.5352 4.13354 19.4465 3.74924L19.0917 2.28593C18.9735 1.6947 18.7666 1.3104 18.4709 1.13303C18.2936 1.04434 17.9684 1 17.4954 1H13.5046C13.0316 1 12.6916 1.04434 12.4847 1.13303C12.1891 1.3104 11.9969 1.6947 11.9083 2.28593L11.5535 3.74924C11.4944 4.13354 11.2727 4.35525 10.8884 4.41437L2.95107 5.74465C2.3894 5.83333 1.9238 6.04766 1.55428 6.38761C1.18476 6.72757 1 7.14883 1 7.65138V8.89297C1 9.15902 1.09608 9.38073 1.28823 9.5581C1.48038 9.73547 1.70948 9.82416 1.97554 9.82416H29.0245C29.2905 9.82416 29.5196 9.73547 29.7118 9.5581C29.9039 9.38073 30 9.15902 30 8.89297V7.65138C30 7.14883 29.8152 6.72757 29.4457 6.38761C29.0762 6.04766 28.6106 5.83333 28.0489 5.74465Z" fill="#DF1616" stroke="#DF1616"/>
</svg>
