<svg width="22" height="28" viewBox="0 0 22 28" fill="none" xmlns="http://www.w3.org/2000/svg">
<path d="M11.0003 3.20825C9.85868 3.20825 8.88521 3.93745 8.52445 4.95817C8.3634 5.4138 7.86349 5.65262 7.40786 5.49157C6.95223 5.33052 6.71343 4.83062 6.87448 4.375C7.47464 2.67694 9.09405 1.45825 11.0003 1.45825C12.9066 1.45825 14.5259 2.67694 15.1262 4.375C15.2872 4.83062 15.0484 5.33052 14.5928 5.49157C14.1371 5.65262 13.6372 5.4138 13.4762 4.95817C13.1154 3.93745 12.1418 3.20825 11.0003 3.20825Z" fill="#DC3545"/>
<path d="M0.208496 7C0.208496 6.51675 0.600251 6.125 1.0835 6.125H20.9169C21.4002 6.125 21.7919 6.51675 21.7919 7C21.7919 7.48324 21.4002 7.875 20.9169 7.875H1.0835C0.600251 7.875 0.208496 7.48324 0.208496 7Z" fill="#DC3545"/>
<path d="M3.90092 9.85833C3.86878 9.37615 3.45183 9.01133 2.96966 9.04347C2.48748 9.07562 2.12265 9.49256 2.1548 9.97474L2.6955 18.0851C2.79523 19.5817 2.8758 20.7905 3.06477 21.7391C3.26124 22.7253 3.59539 23.549 4.28559 24.1947C4.97578 24.8404 5.81992 25.119 6.81701 25.2495C7.77606 25.3749 8.98761 25.3749 10.4875 25.3749H11.5127C13.0126 25.3749 14.2241 25.3749 15.1832 25.2495C16.1802 25.119 17.0244 24.8404 17.7146 24.1947C18.4048 23.549 18.739 22.7253 18.9354 21.7391C19.1243 20.7905 19.2049 19.5817 19.3047 18.0851L19.8454 9.97474C19.8775 9.49256 19.5127 9.07562 19.0305 9.04347C18.5483 9.01133 18.1314 9.37615 18.0993 9.85833L17.5626 17.9073C17.4578 19.4798 17.3831 20.5739 17.2191 21.3971C17.06 22.1957 16.838 22.6184 16.519 22.9168C16.2001 23.2151 15.7635 23.4087 14.9562 23.5143C14.1239 23.6231 13.0272 23.6249 11.4513 23.6249H10.549C8.97303 23.6249 7.8763 23.6231 7.044 23.5143C6.23667 23.4087 5.80015 23.2151 5.48116 22.9168C5.16218 22.6184 4.94013 22.1957 4.78105 21.3971C4.61705 20.5739 4.54235 19.4798 4.43753 17.9073L3.90092 9.85833Z" fill="#DC3545"/>
<path d="M7.9965 11.9627C8.47735 11.9146 8.90608 12.2654 8.95426 12.7463L9.53759 18.5796C9.58566 19.0604 9.23484 19.4893 8.75394 19.5374C8.27311 19.5854 7.84432 19.2346 7.79624 18.7537L7.2129 12.9204C7.16481 12.4396 7.51564 12.0107 7.9965 11.9627Z" fill="#DC3545"/>
<path d="M14.7876 12.9204C14.8357 12.4396 14.4849 12.0107 14.004 11.9627C13.5232 11.9146 13.0943 12.2654 13.0462 12.7463L12.4629 18.5796C12.4148 19.0604 12.7657 19.4893 13.2466 19.5374C13.7273 19.5854 14.1561 19.2346 14.2043 18.7537L14.7876 12.9204Z" fill="#DC3545"/>
</svg>
