<svg width="45" height="45" viewBox="0 0 45 45" fill="none" xmlns="http://www.w3.org/2000/svg">
<rect x="-1.25" y="1.25" width="41.5" height="41.5" rx="4.25" transform="matrix(1 0 0 -1 3 44.5)" fill="#DC3545" stroke="white" stroke-width="2.5"/>
<path d="M23.0003 12.208C21.8587 12.208 20.8852 12.9372 20.5244 13.9579C20.3634 14.4136 19.8635 14.6524 19.4079 14.4913C18.9522 14.3303 18.7134 13.8304 18.8745 13.3748C19.4746 11.6767 21.094 10.458 23.0003 10.458C24.9066 10.458 26.5259 11.6767 27.1262 13.3748C27.2872 13.8304 27.0484 14.3303 26.5928 14.4913C26.1371 14.6524 25.6372 14.4136 25.4762 13.9579C25.1154 12.9372 24.1418 12.208 23.0003 12.208Z" fill="white"/>
<path d="M12.2085 16C12.2085 15.5168 12.6003 15.125 13.0835 15.125H32.9169C33.4002 15.125 33.7919 15.5168 33.7919 16C33.7919 16.4832 33.4002 16.875 32.9169 16.875H13.0835C12.6003 16.875 12.2085 16.4832 12.2085 16Z" fill="white"/>
<path d="M15.9014 18.8578C15.8693 18.3757 15.4523 18.0108 14.9702 18.043C14.488 18.0751 14.1231 18.4921 14.1553 18.9743L14.696 27.0846C14.7957 28.5812 14.8763 29.79 15.0653 30.7386C15.2617 31.7248 15.5959 32.5486 16.2861 33.1942C16.9763 33.8399 17.8204 34.1185 18.8175 34.249C19.7765 34.3744 20.9881 34.3744 22.488 34.3744H23.5132C25.0131 34.3744 26.2246 34.3744 27.1837 34.249C28.1807 34.1185 29.0249 33.8399 29.7151 33.1942C30.4053 32.5486 30.7394 31.7248 30.9359 30.7386C31.1248 29.79 31.2054 28.5812 31.3052 27.0846L31.8459 18.9743C31.878 18.4921 31.5132 18.0751 31.031 18.043C30.5488 18.0108 30.1318 18.3757 30.0998 18.8578L29.5631 26.9068C29.4583 28.4793 29.3835 29.5734 29.2196 30.3966C29.0605 31.1952 28.8385 31.6179 28.5195 31.9163C28.2005 32.2147 27.764 32.4082 26.9566 32.5138C26.1243 32.6226 25.0277 32.6244 23.4517 32.6244H22.5494C20.9735 32.6244 19.8768 32.6226 19.0445 32.5138C18.2372 32.4082 17.8006 32.2147 17.4816 31.9163C17.1627 31.6179 16.9406 31.1952 16.7815 30.3966C16.6175 29.5734 16.5428 28.4793 16.438 26.9068L15.9014 18.8578Z" fill="white"/>
<path d="M19.9965 20.9624C20.4773 20.9143 20.9061 21.2652 20.9543 21.7461L21.5376 27.5794C21.5857 28.0602 21.2348 28.489 20.7539 28.5371C20.2731 28.5852 19.8443 28.2344 19.7962 27.7535L19.2129 21.9201C19.1648 21.4393 19.5156 21.0105 19.9965 20.9624Z" fill="white"/>
<path d="M26.7876 21.9201C26.8357 21.4393 26.4849 21.0105 26.004 20.9624C25.5232 20.9143 25.0943 21.2652 25.0462 21.7461L24.4629 27.5794C24.4148 28.0602 24.7657 28.489 25.2466 28.5371C25.7273 28.5852 26.1561 28.2344 26.2043 27.7535L26.7876 21.9201Z" fill="white"/>
</svg>
