<svg width="46" height="46" viewBox="0 0 46 46" fill="none" xmlns="http://www.w3.org/2000/svg">
<circle cx="23" cy="23" r="23" fill="#FE4C4C"/>
<path d="M23 38C31.2843 38 38 31.5081 38 23.5C38 15.4919 31.2843 9 23 9C14.7157 9 8 15.4918 8 23.5C8 31.5081 14.7157 38 23 38ZM17.1544 24.2624L22.0654 16.0412C22.2582 15.7184 22.6145 15.5196 23 15.5196C23.3855 15.5196 23.7417 15.7184 23.9345 16.0412L28.8454 24.2624C29.0384 24.5853 29.0384 24.9829 28.8456 25.3056C28.6528 25.6285 28.2966 25.8273 27.911 25.8273H25.5181V30.4371C25.5181 31.0132 25.035 31.4803 24.4389 31.4803H21.561C20.965 31.4803 20.4819 31.0132 20.4819 30.4371V25.8273H18.089C17.7034 25.8273 17.3471 25.6285 17.1543 25.3056C16.9616 24.9829 16.9616 24.5853 17.1544 24.2624Z" fill="white"/>
</svg>
